<?xml version="1.0" encoding="utf-8"?>
<!-- Generator: Adobe Illustrator 18.1.1, SVG Export Plug-In . SVG Version: 6.00 Build 0)  -->
<svg version="1.1" id="Galaxy" xmlns="http://www.w3.org/2000/svg" xmlns:xlink="http://www.w3.org/1999/xlink" x="0px" y="0px"
	 viewBox="0 0 298 572.7" enable-background="new 0 0 298 572.7" xml:space="preserve">
<g id="Body_Out">
	<rect x="5" y="103.3" fill="#D7D7D7" width="1.5" height="91.7"/>
	<path fill="#D7D7D7" d="M290.6,125.8l0-54.7c0-39.2,5.8-66-122.2-66c0,0-5.3,0-11.8,0c-4.6,0-10.8,0-16.2,0c-6.5,0-11.8,0-11.8,0
		C0.7,5,6.5,31.9,6.5,71l0.2,430.6c-0.2,29,3.3,64,90,64c0,0,25.4,0,43.8,0c7,0,13,0,16.2,0c18.4,0,43.8,0,43.8,0
		c86.7,0,90.2-35,90-64l0.1-327.7h2.4v-48.2H290.6z M277.7,508.3c0,4.4-3.6,8-8,8h-243c-4.4,0-8-3.6-8-8V63c0-4.4,3.6-8,8-8h243
		c4.4,0,8,3.6,8,8V508.3z"/>
</g>
<path id="Body_In" fill="#F5F5F5" d="M168.2,8.3c0,0-5.2,0-11.6,0c-4.5,0-10.6,0-15.9,0c-6.3,0-11.6,0-11.6,0
	C3.8,8.3,9.5,34.9,9.5,73.6l0.2,425.5c-0.2,28.6,3.3,63.2,88.2,63.2c0,0,24.8,0,42.9,0c6.8,0,12.7,0,15.9,0c18.1,0,42.9,0,42.9,0
	c84.9,0,88.4-34.6,88.2-63.2L288,73.6C288,34.9,293.7,8.3,168.2,8.3z M237.5,33.8c0-2.4,1.9-4.3,4.3-4.3h0c2.4,0,4.3,1.9,4.3,4.3v0
	c0,2.4-1.9,4.3-4.3,4.3h0C239.4,38.1,237.5,36.2,237.5,33.8L237.5,33.8z M207.4,24.5c2.2,0,3.9,1.8,3.9,3.9c0,2.2-1.8,3.9-3.9,3.9
	s-3.9-1.8-3.9-3.9C203.5,26.3,205.3,24.5,207.4,24.5z M191.4,24.5c2.2,0,3.9,1.8,3.9,3.9c0,2.2-1.8,3.9-3.9,3.9s-3.9-1.8-3.9-3.9
	C187.5,26.3,189.3,24.5,191.4,24.5z M119.8,24.5h58.3c2,0,3.7,1.6,3.7,3.7c0,2-1.6,3.7-3.7,3.7h-58.3c-2,0-3.7-1.6-3.7-3.7
	C116.2,26.1,117.8,24.5,119.8,24.5z M101.4,24.5c2.2,0,3.9,1.8,3.9,3.9c0,2.2-1.8,3.9-3.9,3.9s-3.9-1.8-3.9-3.9
	C97.5,26.3,99.3,24.5,101.4,24.5z M181.7,549.3h-48c-5.7,0-10.3-4.6-10.3-10.3s4.7-10.3,10.3-10.3h48c5.7,0,10.3,4.7,10.3,10.3
	S187.3,549.3,181.7,549.3z M277.7,508.3c0,4.4-3.6,8-8,8h-243c-4.4,0-8-3.6-8-8V63c0-4.4,3.6-8,8-8h243c4.4,0,8,3.6,8,8V508.3z"/>
</svg>
