<?xml version="1.0" encoding="utf-8"?>
<!-- Generator: Adobe Illustrator 18.1.1, SVG Export Plug-In . SVG Version: 6.00 Build 0)  -->
<svg version="1.1" id="Ipad" xmlns="http://www.w3.org/2000/svg" xmlns:xlink="http://www.w3.org/1999/xlink" x="0px" y="0px"
	 viewBox="0 0 402 589" enable-background="new 0 0 402 589" xml:space="preserve">
<path id="Body_Out" fill="#E9E9E9" d="M369.3,4.5h-67.7V2.3h-28v2.2H31.3c-14.3,0-26,11.7-26,26v528.8c0,14.3,11.7,26,26,26h338
	c14.3,0,26-11.7,26-26V30.5C395.3,16.2,383.6,4.5,369.3,4.5z M375.5,530H25V61.5h350.5V530z"/>
<path id="Body_In" fill="#F4F4F4" d="M367.9,7.3H33.2c-13.8,0-25,11.2-25,25v525.3c0,13.8,11.2,25,25,25h334.8c13.8,0,25-11.2,25-25
	V32.3C392.9,18.6,381.7,7.3,367.9,7.3z M200.4,30.8c2.1,0,3.8,1.7,3.8,3.8s-1.7,3.8-3.8,3.8c-2.1,0-3.8-1.7-3.8-3.8
	S198.3,30.8,200.4,30.8z M200.8,572.7c-8.7,0-15.8-7.1-15.8-15.8s7.1-15.8,15.8-15.8s15.8,7.1,15.8,15.8S209.4,572.7,200.8,572.7z
	 M375.5,530H25V61.5h350.5V530z"/>
</svg>
