<?xml version="1.0" encoding="utf-8"?>
<!-- Generator: Adobe Illustrator 18.1.1, SVG Export Plug-In . SVG Version: 6.00 Build 0)  -->
<svg version="1.1" id="Mac" xmlns="http://www.w3.org/2000/svg" xmlns:xlink="http://www.w3.org/1999/xlink" x="0px" y="0px"
	 viewBox="0 0 613.9 503.3" enable-background="new 0 0 613.9 503.3" xml:space="preserve">
<path fill="#D3D4D5" d="M595.5,11.1H20.2c-6.6,0-12,5.4-12,12v394.7c0,6.6,5.4,12,12,12h575.3c6.6,0,12-5.4,12-12V23.1
	C607.5,16.5,602.1,11.1,595.5,11.1z M580,350.3H33.5v-308H580V350.3z"/>
<path fill="#181818" d="M595.5,11.1H20.2c-6.6,0-12,5.4-12,12v350.7c11.9,0,585.9,0,599.3,0V23.1C607.5,16.5,602.1,11.1,595.5,11.1z
	 M580,350.3H33.5v-308H580V350.3z"/>
<path opacity="0.2" fill="#FFFFFF" d="M363.2,11.1h232.3c6.6,0,12,5.4,12,12v350.7c0,0-18.5,0-77.1,0
	C455.5,212.8,527.2,368.8,363.2,11.1z"/>
<rect x="8.2" y="373.9" opacity="0.7" fill="#FFFFFF" width="599.3" height="1.2"/>
<path fill="#A9A9AB" d="M238.2,429.8c0,0-5,52.2-7.3,55s-28,4.4-26.7,6c-0.1,3-0.1,3,102.1,3c101.9,0,102.1,1,102.1-2.4
	c1-1.3-22.8-4.5-25.8-7.2s-7.2-54.5-7.2-54.5"/>
<path fill="#D2D3D5" d="M306.2,493.8c101.9,0,102.1,1,102.1-2.4c1-1.3-22.8-4.5-25.8-7.2s-7.2-54.5-7.2-54.5"/>
</svg>
